<?xml version="1.0" encoding="UTF-8" standalone="no"?>
<!-- Generator: Adobe Illustrator 16.0.4, SVG Export Plug-In . SVG Version: 6.00 Build 0)  -->

<svg
   xmlns:dc="http://purl.org/dc/elements/1.1/"
   xmlns:cc="http://creativecommons.org/ns#"
   xmlns:rdf="http://www.w3.org/1999/02/22-rdf-syntax-ns#"
   xmlns:svg="http://www.w3.org/2000/svg"
   xmlns="http://www.w3.org/2000/svg"
   xmlns:sodipodi="http://sodipodi.sourceforge.net/DTD/sodipodi-0.dtd"
   xmlns:inkscape="http://www.inkscape.org/namespaces/inkscape"
   version="1.1"
   id="Layer_1"
   x="0px"
   y="0px"
   width="146.355px"
   height="47.955px"
   viewBox="0 0 146.355 47.955"
   enable-background="new 0 0 146.355 47.955"
   xml:space="preserve"
   inkscape:version="0.48.4 r9939"
   sodipodi:docname="dariah.svg"
   inkscape:export-filename="/home/ddavidov/git/dariah-repository/zenodo/modules/theme/static/img/zenodo.png"
   inkscape:export-xdpi="300"
   inkscape:export-ydpi="300"><metadata
     id="metadata15"><rdf:RDF><cc:Work
         rdf:about=""><dc:format>image/svg+xml</dc:format><dc:type
           rdf:resource="http://purl.org/dc/dcmitype/StillImage" /><dc:title /></cc:Work></rdf:RDF></metadata><defs
     id="defs13" /><sodipodi:namedview
     pagecolor="#ffffff"
     bordercolor="#666666"
     borderopacity="1"
     objecttolerance="10"
     gridtolerance="10"
     guidetolerance="10"
     inkscape:pageopacity="0"
     inkscape:pageshadow="2"
     inkscape:window-width="1920"
     inkscape:window-height="1150"
     id="namedview11"
     showgrid="false"
     inkscape:zoom="4.441256"
     inkscape:cx="53.481712"
     inkscape:cy="11.767025"
     inkscape:window-x="0"
     inkscape:window-y="0"
     inkscape:window-maximized="1"
     inkscape:current-layer="Layer_1" /><g
     transform="matrix(0.27334808,0,0,-0.27334808,3.3093454,44.704821)"
     inkscape:label="ink_ext_XXXXXX"
     id="g3812"
     style="fill:#ffffff;fill-opacity:1"><g
       transform="scale(0.1,0.1)"
       id="g3814"
       style="fill:#ffffff;fill-opacity:1"><path
         id="path3816"
         style="fill:#ffffff;fill-opacity:1;fill-rule:nonzero;stroke:none"
         d="m 840.137,563.629 c 0,22.187 11.504,34.512 33.672,34.512 l 165.121,0 c 179.9,0 297.36,-106.801 297.36,-290.801 0,-184 -117.46,-292.4416 -297.36,-292.4416 l -165.121,0 c -22.168,0 -33.672,11.5 -33.672,34.5118 l 0,514.2188 z M 1033.17,106.09 c 118.29,0 193.86,69.801 193.86,201.25 0,129.781 -77.21,199.629 -193.86,199.629 l -87.889,0 0,-400.879 87.889,0"
         inkscape:connector-curvature="0" /><path
         id="path3818"
         style="fill:#ffffff;fill-opacity:1;fill-rule:nonzero;stroke:none"
         d="m 1560.51,570.211 c 6.57,18.887 18.9,27.93 38.61,27.93 l 52.57,0 c 19.72,0 32.86,-9.043 38.6,-27.93 L 1872.66,54.332 c 8.21,-23.8125 -2.46,-39.4336 -27.93,-39.4336 l -37.78,0 c -19.72,0 -32.87,9.043 -38.61,27.9336 l -41.07,121.578 -204.56,0 -40.25,-120.7616 c -5.74,-19.707 -18.89,-28.75 -38.6,-28.75 l -37.79,0 c -25.46,0 -36.15,15.6211 -27.93,39.4336 l 182.37,515.879 z m 140.47,-319.551 -51.75,156.09 c -9.85,32.852 -23,90.352 -23,90.352 l -1.65,0 c 0,0 -13.14,-57.5 -23,-90.352 L 1549,250.66 l 151.98,0"
         inkscape:connector-curvature="0" /><path
         id="path3820"
         style="fill:#ffffff;fill-opacity:1;fill-rule:nonzero;stroke:none"
         d="m 1953.11,563.629 c 0,22.187 11.5,34.512 33.69,34.512 l 157.71,0 c 57.5,0 86.25,-4.922 110.89,-15.606 59.15,-24.648 97.76,-80.504 97.76,-159.355 0,-69 -36.14,-134.731 -96.93,-159.379 l 0,-1.641 c 0,0 7.4,-9.039 18.89,-30.39 l 96.12,-175.8012 c 13.96,-23.8086 3.26,-41.0704 -23.83,-41.0704 l -44.36,0 c -18.89,0 -31.19,7.4024 -40.26,23.8321 l -102.67,193.8395 -101.86,0 0,-183.1598 c 0,-23.0118 -11.5,-34.5118 -33.69,-34.5118 l -37.77,0 c -22.19,0 -33.69,11.5 -33.69,34.5118 l 0,514.2188 z M 2153.54,324.59 c 56.67,0 92.01,35.332 92.01,92.832 0,36.969 -13.97,66.539 -46,79.668 -13.96,6.601 -32.04,9.879 -63.26,9.879 l -78.03,0 0,-182.379 95.28,0"
         inkscape:connector-curvature="0" /><path
         id="path3822"
         style="fill:#ffffff;fill-opacity:1;fill-rule:nonzero;stroke:none"
         d="m 2467.27,563.629 c 0,22.187 11.51,34.512 33.68,34.512 l 37.8,0 c 22.18,0 33.67,-12.325 33.67,-34.512 l 0,-514.2188 c 0,-23.0118 -11.49,-34.5118 -33.67,-34.5118 l -37.8,0 c -22.17,0 -33.68,11.5 -33.68,34.5118 l 0,514.2188"
         inkscape:connector-curvature="0" /><path
         id="path3824"
         style="fill:#ffffff;fill-opacity:1;fill-rule:nonzero;stroke:none"
         d="m 2835.26,570.211 c 6.57,18.887 18.9,27.93 38.62,27.93 l 52.56,0 c 19.73,0 32.88,-9.043 38.6,-27.93 L 3147.4,54.332 c 8.22,-23.8125 -2.46,-39.4336 -27.93,-39.4336 l -37.77,0 c -19.71,0 -32.85,9.043 -38.6,27.9336 l -41.07,121.578 -204.55,0 -40.26,-120.7616 c -5.74,-19.707 -18.88,-28.75 -38.59,-28.75 l -37.81,0 c -25.45,0 -36.13,15.6211 -27.91,39.4336 l 182.35,515.879 z m 140.46,-319.551 -51.75,156.09 c -9.85,32.852 -22.99,90.352 -22.99,90.352 l -1.64,0 c 0,0 -13.15,-57.5 -23,-90.352 l -52.57,-156.09 151.95,0"
         inkscape:connector-curvature="0" /><path
         id="path3826"
         style="fill:#ffffff;fill-opacity:1;fill-rule:nonzero;stroke:none"
         d="m 3227.85,563.629 c 0,22.187 11.51,34.512 33.67,34.512 l 37.81,0 c 22.17,0 33.67,-12.325 33.67,-34.512 l 0,-212.758 266.96,0 0,212.758 c 0,22.187 11.51,34.512 34.51,34.512 l 36.98,0 c 22.18,0 33.67,-12.325 33.67,-34.512 l 0,-514.2188 c 0,-23.0118 -11.49,-34.5118 -33.67,-34.5118 l -36.98,0 c -23,0 -34.51,11.5 -34.51,34.5118 l 0,210.2888 -266.96,0 0,-210.2888 c 0,-23.0118 -11.5,-34.5118 -33.67,-34.5118 l -37.81,0 c -22.16,0 -33.67,11.5 -33.67,34.5118 l 0,514.2188"
         inkscape:connector-curvature="0" /><path
         id="path3828"
         style="fill:#ffffff;fill-opacity:1;fill-rule:nonzero;stroke:none"
         d="m 3820.07,238.34 0,23 c 0,22.172 12.31,33.68 34.51,33.68 l 178.23,0 c 22.21,0 34.53,-11.508 34.53,-33.68 l 0,-23 c 0,-22.988 -12.32,-34.5 -34.53,-34.5 l -178.23,0 c -22.2,0 -34.51,11.512 -34.51,34.5"
         inkscape:connector-curvature="0" /><path
         id="path3830"
         style="fill:#ffffff;fill-opacity:1;fill-rule:nonzero;stroke:none"
         d="m 490.027,1329.18 c 0,101.73 130.989,164.62 217.219,216.88 67.754,-41.26 225.774,-115.91 225.801,-222.97 0.039,-118.84 -49.434,-312.55 -88.77,-313.39 -42.793,-0.93 -101.914,245.52 -133.379,244.87 -31.445,-0.66 -90,-245.86 -129.472,-245.8 -42.852,0.05 -91.399,209.67 -91.399,320.41"
         inkscape:connector-curvature="0" /><path
         id="path3832"
         style="fill:#ffffff;fill-opacity:1;fill-rule:nonzero;stroke:none"
         d="M 139.133,755.23 C 42.3711,786.695 23.0469,930.699 0,1028.84 c 60.1758,51.7 180,178.92 281.836,145.87 113.027,-36.7 281.973,-143.58 270.605,-181.276 -12.304,-40.977 -264.992,-21.055 -274.082,-51.172 -9.121,-30.117 206.004,-161.582 193.75,-199.121 -13.3,-40.703 -227.656,-22.11 -332.976,12.089"
         inkscape:connector-curvature="0" /><path
         id="path3834"
         style="fill:#ffffff;fill-opacity:1;fill-rule:nonzero;stroke:none"
         d="M 576.543,244.18 C 516.719,161.891 373.816,188 273.34,196.379 242.766,269.59 158.816,422.891 221.699,509.512 291.543,605.66 445.41,733.277 477.727,710.855 512.891,686.5 415.859,452.34 441.719,434.371 467.539,416.379 659.063,580.367 690.957,557.105 725.566,531.891 641.641,333.77 576.543,244.18"
         inkscape:connector-curvature="0" /><path
         id="path3836"
         style="fill:#ffffff;fill-opacity:1;fill-rule:nonzero;stroke:none"
         d="m 1144.27,1172.86 c 96.78,31.43 197.06,-73.7 273.41,-139.58 -18.3,-77.171 -40.46,-250.53 -142.27,-283.635 -113.03,-36.778 -312.527,-49.59 -325.488,-12.442 -14.129,40.41 201.988,172.832 191.658,202.539 -10.32,29.707 -261.658,9.61 -273.787,47.168 -13.184,40.8 171.187,151.72 276.477,185.95"
         inkscape:connector-curvature="0" /><path
         id="path3838"
         style="fill:#ffffff;fill-opacity:1;fill-rule:nonzero;stroke:none"
         d="m 4176.19,557.836 c 0,22.148 11.47,34.461 33.63,34.461 l 280.56,0 c 22.14,0 34.46,-12.313 34.46,-34.461 l 0,-22.965 c 0,-22.152 -12.32,-33.641 -34.46,-33.641 l -209.19,0 0,-152.582 162.43,0 c 22.15,0 34.47,-11.488 34.47,-33.628 l 0,-22.969 c 0,-22.981 -12.32,-34.473 -34.47,-34.473 l -162.43,0 0,-156.68 222.31,0 c 22.17,0 34.46,-11.4761 34.46,-33.6285 l 0,-22.9804 c 0,-22.9805 -12.29,-34.44926 -34.46,-34.44926 l -293.68,0 c -22.16,0 -33.63,11.46876 -33.63,34.44926 l 0,513.5469"
         inkscape:connector-curvature="0" /><path
         id="path3840"
         style="fill:#ffffff;fill-opacity:1;fill-rule:nonzero;stroke:none"
         d="m 4626.67,557.836 c 0,22.148 11.49,34.461 33.63,34.461 l 36.95,0 c 22.96,0 34.42,-12.313 34.42,-34.461 l 0,-337.984 c 0,-78.75 50.89,-123.0512 128.8,-123.0512 77.95,0 129.63,44.3012 129.63,123.0512 l 0,337.984 c 0,22.148 11.49,34.461 33.63,34.461 l 37.73,0 c 22.16,0 33.64,-12.313 33.64,-34.461 l 0,-338.805 C 5095.1,88.5898 5001.59,0 4861.29,0 4720.21,0 4626.67,88.5898 4626.67,219.031 l 0,338.805"
         inkscape:connector-curvature="0" /></g></g></svg>