<?xml version="1.0" encoding="UTF-8" standalone="no"?>
<!-- Created with Inkscape (http://www.inkscape.org/) -->

<svg
   xmlns:dc="http://purl.org/dc/elements/1.1/"
   xmlns:cc="http://creativecommons.org/ns#"
   xmlns:rdf="http://www.w3.org/1999/02/22-rdf-syntax-ns#"
   xmlns:svg="http://www.w3.org/2000/svg"
   xmlns="http://www.w3.org/2000/svg"
   xmlns:sodipodi="http://sodipodi.sourceforge.net/DTD/sodipodi-0.dtd"
   xmlns:inkscape="http://www.inkscape.org/namespaces/inkscape"
   id="svg2"
   version="1.1"
   inkscape:version="0.48.4 r9939"
   width="146.35001"
   height="47.959999"
   xml:space="preserve"
   sodipodi:docname="dariah.svg"
   inkscape:export-filename="/home/ddavidov/git/dariah-repository/zenodo/modules/theme/static/img/dariah.png"
   inkscape:export-xdpi="300"
   inkscape:export-ydpi="300"><metadata
     id="metadata8"><rdf:RDF><cc:Work
         rdf:about=""><dc:format>image/svg+xml</dc:format><dc:type
           rdf:resource="http://purl.org/dc/dcmitype/StillImage" /><dc:title></dc:title></cc:Work></rdf:RDF></metadata><defs
     id="defs6"><filter
       id="filter3051"
       inkscape:label="Invert"
       x="0"
       y="0"
       width="1"
       height="1"
       inkscape:menu="Color"
       inkscape:menu-tooltip="Invert colors"
       color-interpolation-filters="sRGB"><feColorMatrix
         id="feColorMatrix3053"
         type="saturate"
         values="0"
         result="fbSourceGraphic" /><feColorMatrix
         result="fbSourceGraphicAlpha"
         in="fbSourceGraphic"
         values="0 0 0 -1 0 0 0 0 -1 0 0 0 0 -1 0 0 0 0 1 0"
         id="feColorMatrix3055" /><feColorMatrix
         id="feColorMatrix3057"
         type="saturate"
         values="0"
         in="fbSourceGraphic"
         result="result1" /><feBlend
         blend="normal"
         id="feBlend3059"
         in2="result1"
         result="result2"
         mode="normal" /><feBlend
         blend="normal"
         id="feBlend3061"
         in2="result2"
         result="fbSourceGraphic"
         mode="normal" /><feColorMatrix
         result="fbSourceGraphicAlpha"
         in="fbSourceGraphic"
         values="0 0 0 -1 0 0 0 0 -1 0 0 0 0 -1 0 0 0 0 1 0"
         id="feColorMatrix3063" /><feColorMatrix
         id="feColorMatrix3065"
         type="saturate"
         values="1"
         result="fbSourceGraphic"
         in="fbSourceGraphic" /><feColorMatrix
         id="feColorMatrix3067"
         in="fbSourceGraphic"
         values="-1 0 0 0 1 0 -1 0 0 1 0 0 -1 0 1 0 0 0 1 0 " /></filter></defs><sodipodi:namedview
     pagecolor="#ffffff"
     bordercolor="#666666"
     borderopacity="1"
     objecttolerance="10"
     gridtolerance="10"
     guidetolerance="10"
     inkscape:pageopacity="0"
     inkscape:pageshadow="2"
     inkscape:window-width="1920"
     inkscape:window-height="1150"
     id="namedview4"
     showgrid="false"
     inkscape:zoom="3.4284638"
     inkscape:cx="108.47711"
     inkscape:cy="35.974793"
     inkscape:window-x="0"
     inkscape:window-y="0"
     inkscape:window-maximized="1"
     inkscape:current-layer="g10"
     fit-margin-top="0"
     fit-margin-left="0"
     fit-margin-right="0"
     fit-margin-bottom="0" /><g
     id="g10"
     inkscape:groupmode="layer"
     inkscape:label="ink_ext_XXXXXX"
     transform="matrix(1.25,0,0,-1.25,-4.3690974,47.960002)"><g
       id="g3941"
       transform="matrix(0.19456672,0,0,0.19456672,50.557901,36.799714)"
       style="fill:#ffffff;fill-opacity:1"><path
         inkscape:connector-curvature="0"
         d="m -123.26131,-111.25593 c 0,2.2187 1.1504,3.4512 3.3672,3.4512 l 16.5121,0 c 17.99,0 29.736,-10.6801 29.736,-29.0801 0,-18.4 -11.746,-29.24416 -29.736,-29.24416 l -16.5121,0 c -2.2168,0 -3.3672,1.15 -3.3672,3.45118 l 0,51.42188 z m 19.3033,-45.7539 c 11.829,0 19.386,6.9801 19.386,20.125 0,12.9781 -7.721,19.9629 -19.386,19.9629 l -8.7889,0 0,-40.0879 8.7889,0"
         style="fill:#ffffff;fill-opacity:1;fill-rule:nonzero;stroke:none"
         id="path3873" /><path
         inkscape:connector-curvature="0"
         d="m -51.22401,-110.59773 c 0.657,1.8887 1.89,2.793 3.861,2.793 l 5.257,0 c 1.972,0 3.286,-0.9043 3.86,-2.793 l 18.237,-51.5879 c 0.821,-2.38125 -0.246,-3.94336 -2.793,-3.94336 l -3.778,0 c -1.972,0 -3.287,0.9043 -3.861,2.79336 l -4.107,12.1578 -20.456,0 -4.025,-12.07616 c -0.574,-1.9707 -1.889,-2.875 -3.86,-2.875 l -3.779,0 c -2.546,0 -3.615,1.56211 -2.793,3.94336 l 18.237,51.5879 z m 14.047,-31.9551 -5.175,15.609 c -0.985,3.2852 -2.3,9.0352 -2.3,9.0352 l -0.165,0 c 0,0 -1.314,-5.75 -2.3,-9.0352 l -5.258,-15.609 15.198,0"
         style="fill:#ffffff;fill-opacity:1;fill-rule:nonzero;stroke:none"
         id="path3875" /><path
         inkscape:connector-curvature="0"
         d="m -11.96401,-111.25593 c 0,2.2187 1.15,3.4512 3.369,3.4512 l 15.771,0 c 5.75,0 8.625,-0.4922 11.089,-1.5606 5.915,-2.4648 9.776,-8.0504 9.776,-15.9355 0,-6.9 -3.614,-13.4731 -9.693,-15.9379 l 0,-0.1641 c 0,0 0.74,-0.9039 1.889,-3.039 l 9.612,-17.58012 c 1.396,-2.38086 0.326,-4.10704 -2.383,-4.10704 l -4.436,0 c -1.889,0 -3.119,0.74024 -4.026,2.38321 l -10.267,19.38395 -10.186,0 0,-18.31598 c 0,-2.30118 -1.15,-3.45118 -3.369,-3.45118 l -3.777,0 c -2.219,0 -3.369,1.15 -3.369,3.45118 l 0,51.42188 z m 20.043,-23.9039 c 5.667,0 9.201,3.5332 9.201,9.2832 0,3.6969 -1.397,6.6539 -4.6,7.9668 -1.396,0.6601 -3.204,0.9879 -6.326,0.9879 l -7.803,0 0,-18.2379 9.528,0"
         style="fill:#ffffff;fill-opacity:1;fill-rule:nonzero;stroke:none"
         id="path3877" /><path
         inkscape:connector-curvature="0"
         d="m 39.45199,-111.25593 c 0,2.2187 1.151,3.4512 3.368,3.4512 l 3.78,0 c 2.218,0 3.367,-1.2325 3.367,-3.4512 l 0,-51.42188 c 0,-2.30118 -1.149,-3.45118 -3.367,-3.45118 l -3.78,0 c -2.217,0 -3.368,1.15 -3.368,3.45118 l 0,51.42188"
         style="fill:#ffffff;fill-opacity:1;fill-rule:nonzero;stroke:none"
         id="path3879" /><path
         inkscape:connector-curvature="0"
         d="m 76.25099,-110.59773 c 0.657,1.8887 1.89,2.793 3.862,2.793 l 5.256,0 c 1.973,0 3.288,-0.9043 3.86,-2.793 l 18.236,-51.5879 c 0.822,-2.38125 -0.246,-3.94336 -2.793,-3.94336 l -3.777,0 c -1.971,0 -3.285,0.9043 -3.86,2.79336 l -4.107,12.1578 -20.455,0 -4.026,-12.07616 c -0.574,-1.9707 -1.888,-2.875 -3.859,-2.875 l -3.781,0 c -2.545,0 -3.613,1.56211 -2.791,3.94336 l 18.235,51.5879 z m 14.046,-31.9551 -5.175,15.609 c -0.985,3.2852 -2.299,9.0352 -2.299,9.0352 l -0.164,0 c 0,0 -1.315,-5.75 -2.3,-9.0352 l -5.257,-15.609 15.195,0"
         style="fill:#ffffff;fill-opacity:1;fill-rule:nonzero;stroke:none"
         id="path3881" /><path
         inkscape:connector-curvature="0"
         d="m 115.50999,-111.25593 c 0,2.2187 1.151,3.4512 3.367,3.4512 l 3.781,0 c 2.217,0 3.367,-1.2325 3.367,-3.4512 l 0,-21.2758 26.696,0 0,21.2758 c 0,2.2187 1.151,3.4512 3.451,3.4512 l 3.698,0 c 2.218,0 3.367,-1.2325 3.367,-3.4512 l 0,-51.42188 c 0,-2.30118 -1.149,-3.45118 -3.367,-3.45118 l -3.698,0 c -2.3,0 -3.451,1.15 -3.451,3.45118 l 0,21.02888 -26.696,0 0,-21.02888 c 0,-2.30118 -1.15,-3.45118 -3.367,-3.45118 l -3.781,0 c -2.216,0 -3.367,1.15 -3.367,3.45118 l 0,51.42188"
         style="fill:#ffffff;fill-opacity:1;fill-rule:nonzero;stroke:none"
         id="path3883" /><path
         inkscape:connector-curvature="0"
         d="m 174.73199,-143.78483 0,2.3 c 0,2.2172 1.231,3.368 3.451,3.368 l 17.823,0 c 2.221,0 3.453,-1.1508 3.453,-3.368 l 0,-2.3 c 0,-2.2988 -1.232,-3.45 -3.453,-3.45 l -17.823,0 c -2.22,0 -3.451,1.1512 -3.451,3.45"
         style="fill:#ffffff;fill-opacity:1;fill-rule:nonzero;stroke:none"
         id="path3885" /><path
         inkscape:connector-curvature="0"
         d="m -158.27231,-34.70083 c 0,10.173 13.0989,16.462 21.7219,21.688 6.7754,-4.126 22.5774,-11.591 22.5801,-22.297 0.004,-11.884 -4.9434,-31.255 -8.877,-31.339 -4.2793,-0.093 -10.1914,24.552 -13.3379,24.487 -3.1445,-0.066 -9,-24.586 -12.9472,-24.58 -4.2852,0.005 -9.1399,20.967 -9.1399,32.041"
         style="fill:#ffffff;fill-opacity:1;fill-rule:nonzero;stroke:none"
         id="path3887" /><path
         inkscape:connector-curvature="0"
         d="m -193.36171,-92.09583 c -9.67619,3.1465 -11.60861,17.5469 -13.9133,27.361 6.01758,5.17 18,17.892 28.1836,14.587 11.3027,-3.67 28.1973,-14.358 27.0605,-18.1276 -1.2304,-4.0977 -26.4992,-2.1055 -27.4082,-5.1172 -0.9121,-3.0117 20.6004,-16.1582 19.375,-19.9121 -1.33,-4.0703 -22.7656,-2.211 -33.2976,1.2089"
         style="fill:#ffffff;fill-opacity:1;fill-rule:nonzero;stroke:none"
         id="path3889" /><path
         inkscape:connector-curvature="0"
         d="m -149.62071,-143.20083 c -5.9824,-8.2289 -20.2727,-5.618 -30.3203,-4.7801 -3.0574,7.3211 -11.4524,22.6512 -5.1641,31.3133 6.9844,9.6148 22.3711,22.3765 25.6028,20.1343 3.5164,-2.4355 -6.1868,-25.8515 -3.6008,-27.6484 2.582,-1.7992 21.7344,14.5996 24.9238,12.2734 3.4609,-2.5214 -4.9316,-22.3335 -11.4414,-31.2925"
         style="fill:#ffffff;fill-opacity:1;fill-rule:nonzero;stroke:none"
         id="path3891" /><path
         inkscape:connector-curvature="0"
         d="m -92.84801,-50.33283 c 9.678,3.143 19.706,-7.37 27.341,-13.958 -1.83,-7.7171 -4.046,-25.053 -14.227,-28.3635 -11.303,-3.6778 -31.2527,-4.959 -32.5488,-1.2442 -1.4129,4.041 20.1988,17.2832 19.1658,20.2539 -1.032,2.9707 -26.1658,0.961 -27.3787,4.7168 -1.3184,4.08 17.1187,15.172 27.6477,18.595"
         style="fill:#ffffff;fill-opacity:1;fill-rule:nonzero;stroke:none"
         id="path3893" /><path
         inkscape:connector-curvature="0"
         d="m 210.34399,-111.83523 c 0,2.2148 1.147,3.4461 3.363,3.4461 l 28.056,0 c 2.214,0 3.446,-1.2313 3.446,-3.4461 l 0,-2.2965 c 0,-2.2152 -1.232,-3.3641 -3.446,-3.3641 l -20.919,0 0,-15.2582 16.243,0 c 2.215,0 3.447,-1.1488 3.447,-3.3628 l 0,-2.2969 c 0,-2.2981 -1.232,-3.4473 -3.447,-3.4473 l -16.243,0 0,-15.668 22.231,0 c 2.217,0 3.446,-1.14761 3.446,-3.36285 l 0,-2.29804 c 0,-2.29805 -1.229,-3.44493 -3.446,-3.44493 l -29.368,0 c -2.216,0 -3.363,1.14688 -3.363,3.44493 l 0,51.35469"
         style="fill:#ffffff;fill-opacity:1;fill-rule:nonzero;stroke:none"
         id="path3895" /><path
         inkscape:connector-curvature="0"
         d="m 255.39199,-111.83523 c 0,2.2148 1.149,3.4461 3.363,3.4461 l 3.695,0 c 2.296,0 3.442,-1.2313 3.442,-3.4461 l 0,-33.7984 c 0,-7.875 5.089,-12.30512 12.88,-12.30512 7.795,0 12.963,4.43012 12.963,12.30512 l 0,33.7984 c 0,2.2148 1.149,3.4461 3.363,3.4461 l 3.773,0 c 2.216,0 3.364,-1.2313 3.364,-3.4461 l 0,-33.8805 c 0,-13.04412 -9.351,-21.9031 -23.381,-21.9031 -14.108,0 -23.462,8.85898 -23.462,21.9031 l 0,33.8805"
         style="fill:#ffffff;fill-opacity:1;fill-rule:nonzero;stroke:none"
         id="path3897" /></g></g></svg>